SplineFontDB: 3.2
FontName: ycaxen-medium
FullName: ycaxen-medium
FamilyName: ycaxen
Weight: Book
Version: 2
ItalicAngle: 0
UnderlinePosition: 0
UnderlineWidth: 0
Ascent: 819
Descent: 205
InvalidEm: 0
sfntRevision: 0x00020000
woffMajor: 2
woffMinor: 0
LayerCount: 2
Layer: 0 1 "+gMyXYgAA" 1
Layer: 1 1 "+Uk2XYgAA" 0
HasVMetrics: 1
XUID: [1021 765 1012425290 10527]
StyleMap: 0x0040
FSType: 0
OS2Version: 1
OS2_WeightWidthSlopeOnly: 0
OS2_UseTypoMetrics: 0
CreationTime: 1725083476
ModificationTime: 1725298296
PfmFamily: 17
TTFWeight: 400
TTFWidth: 5
LineGap: 92
VLineGap: 92
Panose: 2 0 6 3 0 0 0 0 0 0
OS2TypoAscent: 819
OS2TypoAOffset: 0
OS2TypoDescent: -205
OS2TypoDOffset: 0
OS2TypoLinegap: 92
OS2WinAscent: 756
OS2WinAOffset: 0
OS2WinDescent: 181
OS2WinDOffset: 0
HheadAscent: 756
HheadAOffset: 0
HheadDescent: -181
HheadDOffset: 0
OS2SubXSize: 665
OS2SubYSize: 716
OS2SubXOff: 0
OS2SubYOff: 143
OS2SupXSize: 665
OS2SupYSize: 716
OS2SupXOff: 0
OS2SupYOff: 491
OS2StrikeYSize: 51
OS2StrikeYPos: 265
OS2Vendor: 'PfEd'
OS2CodePages: 00000001.00000000
OS2UnicodeRanges: 00000001.00000000.00000000.00000000
MarkAttachClasses: 1
DEI: 91125
ShortTable: maxp 16
  1
  0
  41
  57
  3
  0
  0
  2
  0
  1
  1
  0
  64
  0
  0
  0
EndShort
LangName: 1033 "" "" "" "FontForge 2.0 : ycaxen-medium : 31-8-2024" "" "Version 2"
GaspTable: 1 65535 2 0
Encoding: UnicodeBmp
UnicodeInterp: none
NameList: AGL For New Fonts
DisplaySize: -48
AntiAlias: 1
FitToEm: 0
WinInfo: 50 25 8
BeginChars: 65538 41

StartChar: exclam
Encoding: 33 33 4
Width: 504
GlyphClass: 2
Flags: W
LayerCount: 2
Fore
SplineSet
338 679 m 1,0,-1
 401 641 l 1,1,-1
 401 -123 l 1,2,-1
 215 2 l 1,3,-1
 151 95 l 1,4,-1
 338 -16 l 1,5,-1
 338 679 l 1,0,-1
106 586 m 1,6,-1
 170 586 l 1,7,-1
 170 155 l 1,8,-1
 106 155 l 1,9,-1
 106 586 l 1,6,-1
EndSplineSet
Validated: 1
EndChar

StartChar: quotedbl
Encoding: 34 34 5
Width: 300
GlyphClass: 2
Flags: W
LayerCount: 2
Fore
SplineSet
116 676 m 1,0,-1
 190 676 l 1,1,-1
 91 508 l 1,2,-1
 47 478 l 1,3,-1
 116 676 l 1,0,-1
224 676 m 1,4,-1
 299 676 l 1,5,-1
 199 508 l 1,6,-1
 156 478 l 1,7,-1
 224 676 l 1,4,-1
EndSplineSet
Validated: 1
EndChar

StartChar: comma
Encoding: 44 44 6
Width: 200
GlyphClass: 2
Flags: W
LayerCount: 2
Fore
SplineSet
165 124 m 1,0,-1
 66 -68 l 1,1,-1
 19 -96 l 1,2,-1
 87 102 l 1,3,-1
 165 124 l 1,0,-1
EndSplineSet
Validated: 1
EndChar

StartChar: hyphen
Encoding: 45 45 7
Width: 400
GlyphClass: 2
Flags: W
LayerCount: 2
Fore
SplineSet
72 398 m 1,0,-1
 372 398 l 1,1,-1
 372 339 l 1,2,-1
 72 339 l 1,3,-1
 72 398 l 1,0,-1
EndSplineSet
Validated: 1
EndChar

StartChar: period
Encoding: 46 46 8
Width: 200
GlyphClass: 2
Flags: W
LayerCount: 2
Fore
SplineSet
131 45.5 m 128,-1,1
 131 29 131 29 119.5 17.5 c 128,-1,2
 108 6 108 6 92 6 c 128,-1,3
 76 6 76 6 64.5 17.5 c 128,-1,4
 53 29 53 29 53 45.5 c 128,-1,5
 53 62 53 62 64.5 73.5 c 128,-1,6
 76 85 76 85 92 85 c 128,-1,7
 108 85 108 85 119.5 73.5 c 128,-1,0
 131 62 131 62 131 45.5 c 128,-1,1
EndSplineSet
Validated: 1
EndChar

StartChar: zero
Encoding: 48 48 9
Width: 500
GlyphClass: 2
Flags: W
LayerCount: 2
Fore
SplineSet
405 97 m 5,0,-1
 326 86 l 5,1,-1
 99 494 l 5,2,-1
 175 468 l 5,3,-1
 405 97 l 5,0,-1
EndSplineSet
Validated: 1
EndChar

StartChar: one
Encoding: 49 49 10
Width: 296
GlyphClass: 2
Flags: W
LayerCount: 2
Fore
SplineSet
120 672 m 1,0,-1
 179 632 l 5,1,-1
 179 -136 l 5,2,-1
 120 -59 l 1,3,-1
 120 672 l 1,0,-1
EndSplineSet
Validated: 1
EndChar

StartChar: two
Encoding: 50 50 11
Width: 456
GlyphClass: 2
Flags: W
LayerCount: 2
Fore
SplineSet
287 679 m 5,0,-1
 342 645 l 1,1,-1
 342 -123 l 1,2,-1
 287 -52 l 5,3,-1
 287 679 l 5,0,-1
114 582 m 1,4,-1
 171 546 l 1,5,-1
 171 91 l 1,6,-1
 114 127 l 1,7,-1
 114 582 l 1,4,-1
EndSplineSet
Validated: 1
EndChar

StartChar: three
Encoding: 51 51 12
Width: 500
GlyphClass: 2
Flags: W
LayerCount: 2
Fore
SplineSet
124 521 m 1,0,-1
 124 66 l 1,1,-1
 67 106 l 1,2,-1
 67 561 l 1,3,-1
 124 521 l 1,0,-1
281 473 m 1,4,-1
 281 130 l 1,5,-1
 228 162 l 1,6,-1
 228 505 l 1,7,-1
 281 473 l 1,4,-1
377 -59 m 1,8,-1
 377 672 l 1,9,-1
 436 632 l 1,10,-1
 436 -136 l 1,11,-1
 377 -59 l 1,8,-1
EndSplineSet
Validated: 1
EndChar

StartChar: four
Encoding: 52 52 13
Width: 500
GlyphClass: 2
Flags: W
LayerCount: 2
Fore
SplineSet
359 592 m 5,0,1
 359 592 359 592 404 532 c 5,2,3
 376 372 376 372 311 227 c 5,4,5
 311 227 311 227 377 126 c 5,6,-1
 326 97 l 5,7,-1
 282 179 l 5,8,9
 200 20 200 20 40 -56 c 5,10,11
 163 45 163 45 246 225 c 5,12,13
 246 225 246 225 154 391 c 5,14,-1
 213 371 l 5,15,-1
 280 271 l 5,16,17
 338 412 338 412 359 592 c 5,0,1
EndSplineSet
Validated: 1
EndChar

StartChar: five
Encoding: 53 53 14
Width: 500
GlyphClass: 2
Flags: W
LayerCount: 2
Fore
SplineSet
507 398 m 5,0,-1
 446 332 l 5,1,-1
 -3 238 l 5,2,-1
 48 303 l 5,3,-1
 507 398 l 5,0,-1
EndSplineSet
Validated: 1
EndChar

StartChar: six
Encoding: 54 54 15
Width: 516
GlyphClass: 2
Flags: W
LayerCount: 2
Fore
SplineSet
231 666 m 1,0,-1
 282 638 l 1,1,-1
 282 333 l 1,2,-1
 506 382 l 1,3,-1
 459 318 l 1,4,-1
 282 278 l 1,5,-1
 282 -130 l 1,6,-1
 231 -65 l 1,7,-1
 231 271 l 1,8,-1
 10 225 l 1,9,-1
 47 287 l 1,10,-1
 231 325 l 1,11,-1
 231 666 l 1,0,-1
EndSplineSet
Validated: 1
EndChar

StartChar: seven
Encoding: 55 55 16
Width: 518
GlyphClass: 2
Flags: W
LayerCount: 2
Fore
SplineSet
315 675 m 1,0,-1
 365 647 l 1,1,-1
 365 368 l 1,2,-1
 508 401 l 1,3,-1
 461 341 l 1,4,-1
 367 319 l 1,5,-1
 367 -119 l 1,6,-1
 315 -56 l 1,7,-1
 315 309 l 1,8,-1
 193 281 l 1,9,-1
 193 99 l 1,10,-1
 143 123 l 5,11,-1
 143 274 l 5,12,-1
 10 246 l 1,13,-1
 47 304 l 1,14,-1
 143 325 l 5,15,-1
 143 578 l 5,16,-1
 193 554 l 1,17,-1
 193 332 l 1,18,-1
 315 360 l 1,19,-1
 315 675 l 1,0,-1
EndSplineSet
Validated: 1
EndChar

StartChar: eight
Encoding: 56 56 17
Width: 708
GlyphClass: 2
Flags: W
LayerCount: 2
Fore
SplineSet
479 676 m 1,0,-1
 529 648 l 1,1,-1
 529 367 l 1,2,-1
 668 400 l 1,3,-1
 623 340 l 1,4,-1
 529 318 l 1,5,-1
 529 -120 l 1,6,-1
 479 -55 l 1,7,-1
 479 309 l 1,8,-1
 367 285 l 1,9,-1
 367 142 l 1,10,-1
 319 160 l 1,11,-1
 319 278 l 1,12,-1
 217 254 l 1,13,-1
 217 86 l 1,14,-1
 169 110 l 5,15,-1
 169 246 l 5,16,-1
 40 215 l 1,17,-1
 79 273 l 1,18,-1
 169 294 l 5,19,-1
 169 565 l 5,20,-1
 217 541 l 1,21,-1
 217 303 l 1,22,-1
 319 327 l 1,23,-1
 319 503 l 1,24,-1
 367 485 l 1,25,-1
 367 335 l 1,26,-1
 479 358 l 1,27,-1
 479 676 l 1,0,-1
EndSplineSet
Validated: 1
EndChar

StartChar: nine
Encoding: 57 57 18
Width: 500
GlyphClass: 2
Flags: W
LayerCount: 2
Fore
SplineSet
385 565 m 5,0,-1
 428 530 l 5,1,2
 421 490 421 490 395 403 c 132,-1,3
 369 316 369 316 329 229 c 5,4,5
 329 229 329 229 391 132 c 5,6,-1
 342 109 l 5,7,-1
 300 183 l 5,8,9
 222 31 222 31 56 -48 c 5,10,11
 183 55 183 55 267 237 c 5,12,13
 267 237 267 237 181 392 c 5,14,-1
 233 379 l 5,15,-1
 298 271 l 5,16,17
 330 348 330 348 345 398.5 c 132,-1,18
 360 449 360 449 369 510 c 5,19,20
 336 502 336 502 68 441 c 5,21,22
 68 441 68 441 122 504 c 5,23,-1
 385 565 l 5,0,-1
EndSplineSet
Validated: 1
EndChar

StartChar: question
Encoding: 63 63 19
Width: 500
GlyphClass: 2
Flags: W
LayerCount: 2
Fore
SplineSet
475 322 m 5,0,1
 512.695652174 211.130434783 512.695652174 211.130434783 512.695652174 141.780718336 c 0,2,3
 512.695652174 117.304347826 512.695652174 117.304347826 508 98 c 5,4,5
 489 57 489 57 446.5 49.5 c 4,6,7
 409 42.8823529412 409 42.8823529412 268.342560554 42.8823529412 c 0,8,9
 249.588235294 42.8823529412 249.588235294 42.8823529412 229 43 c 4,10,11
 186 43 186 43 161 43 c 4,12,13
 151 43 151 43 144 46 c 4,14,15
 126 53.3636363636 126 53.3636363636 126 77.3140495868 c 0,16,17
 126 141.181818182 126 141.181818182 254 323 c 4,18,19
 328 424 328 424 328 424 c 133,-1,20
 328 424 328 424 26 422 c 5,21,-1
 0 474 l 5,22,-1
 337 474 l 6,23,24
 374 473 374 473 391.5 456.5 c 4,25,26
 402.245614035 446.368421053 402.245614035 446.368421053 402.245614035 435.294244383 c 0,27,28
 402.245614035 428.333333333 402.245614035 428.333333333 398 421 c 4,29,30
 395 417 395 417 358 369.5 c 132,-1,31
 321 322 321 322 284.5 272.5 c 132,-1,32
 248 223 248 223 221 172 c 4,33,34
 201.297297297 134.783783784 201.297297297 134.783783784 201.297297297 115.140248356 c 0,35,36
 201.297297297 107.864864865 201.297297297 107.864864865 204 103 c 5,37,38
 204 103 204 103 380 103 c 6,39,40
 383.833333333 102.833333333 383.833333333 102.833333333 387.472222222 102.833333333 c 0,41,42
 405.666666667 102.833333333 405.666666667 102.833333333 419 107 c 4,43,44
 435 112 435 112 444.5 123.5 c 132,-1,45
 454 135 454 135 460 147.5 c 132,-1,46
 466 160 466 160 468.5 182.5 c 132,-1,47
 471 205 471 205 471.5 222.5 c 132,-1,48
 472 240 472 240 473 270.5 c 132,-1,49
 474 301 474 301 475 322 c 5,0,1
EndSplineSet
Validated: 1
EndChar

StartChar: A
Encoding: 65 65 20
Width: 503
GlyphClass: 2
Flags: W
LayerCount: 2
Fore
SplineSet
40 538 m 1,0,-1
 404 538 l 1,1,-1
 404 484 l 1,2,-1
 106 484 l 1,3,-1
 106 351 l 1,4,-1
 214 351 l 2,5,6
 269 351 269 351 315.5 339 c 128,-1,7
 362 327 362 327 391.5 306.5 c 128,-1,8
 421 286 421 286 442 259.5 c 128,-1,9
 463 233 463 233 467 204 c 0,10,11
 468.882352941 190.352941176 468.882352941 190.352941176 468.882352941 176.705882353 c 0,12,13
 468.882352941 161.352941176 468.882352941 161.352941176 466.5 146 c 0,14,15
 462 117 462 117 441 90.5 c 128,-1,16
 420 64 420 64 390.5 43.5 c 128,-1,17
 361 23 361 23 315.5 11 c 128,-1,18
 270 -1 270 -1 216 -1 c 2,19,20
 216 -1 216 -1 43 -1 c 1,21,-1
 40 538 l 1,0,-1
106 300 m 1,22,-1
 106 50 l 1,23,-1
 197 50 l 2,24,25
 254 50 254 50 298.5 64 c 128,-1,26
 343 78 343 78 365.5 100 c 128,-1,27
 388 122 388 122 398.5 148.5 c 0,28,29
 403.511363636 161.147727273 403.511363636 161.147727273 403.511363636 173.909349174 c 0,30,31
 403.511363636 187.886363636 403.511363636 187.886363636 397.5 202 c 0,32,33
 386 229 386 229 363 251 c 128,-1,34
 340 273 340 273 295.5 286.5 c 128,-1,35
 251 300 251 300 195 300 c 2,36,37
 195 300 195 300 106 300 c 1,22,-1
EndSplineSet
Validated: 1
EndChar

StartChar: B
Encoding: 66 66 21
Width: 500
GlyphClass: 2
Flags: W
LayerCount: 2
Fore
SplineSet
219 749 m 1,0,-1
 284 749 l 1,1,-1
 284 573 l 1,2,3
 366 563 366 563 426 476.5 c 128,-1,4
 486 390 486 390 486 283 c 0,5,6
 486 211 486 211 453 145 c 128,-1,7
 420 79 420 79 366 39.5 c 128,-1,8
 312 0 312 0 253 0 c 128,-1,9
 194 0 194 0 139.5 39 c 128,-1,10
 85 78 85 78 51.5 144 c 128,-1,11
 18 210 18 210 18 283 c 0,12,13
 18 391 18 391 77.5 477 c 128,-1,14
 137 563 137 563 220 573 c 1,15,16
 220 573 220 573 219 749 c 1,0,-1
257 520 m 0,17,18
 183 520 183 520 140 455.5 c 128,-1,19
 97 391 97 391 97 283 c 0,20,21
 97 176 97 176 138 116.5 c 128,-1,22
 179 57 179 57 253 57 c 128,-1,23
 327 57 327 57 368 117.5 c 128,-1,24
 409 178 409 178 409 285 c 0,25,26
 409 394 409 394 369.5 457 c 128,-1,27
 330 520 330 520 257 520 c 0,17,18
EndSplineSet
Validated: 1
EndChar

StartChar: C
Encoding: 67 67 22
Width: 500
GlyphClass: 2
Flags: W
LayerCount: 2
Fore
SplineSet
34 540 m 1,0,-1
 163 540 l 2,1,2
 247 540 247 540 313.5 510 c 128,-1,3
 380 480 380 480 414 432.5 c 128,-1,4
 448 385 448 385 464.5 327.5 c 0,5,6
 473.0078125 297.8515625 473.0078125 297.8515625 473.0078125 268.203125 c 0,7,8
 473.0078125 240.3515625 473.0078125 240.3515625 465.5 212.5 c 0,9,10
 450 155 450 155 417 107 c 128,-1,11
 384 59 384 59 317 29.5 c 128,-1,12
 250 0 250 0 163 0 c 2,13,14
 163 0 163 0 34 0 c 1,15,-1
 34 540 l 1,0,-1
107 501 m 1,16,-1
 107 38 l 1,17,-1
 140 38 l 2,18,19
 200 38 200 38 248.5 58 c 128,-1,20
 297 78 297 78 326.5 110.5 c 128,-1,21
 356 143 356 143 371.5 184.5 c 0,22,23
 386.515625 224.703125 386.515625 224.703125 386.515625 266.783203125 c 0,24,25
 386.515625 311.662597656 386.515625 311.662597656 370 354.5 c 0,26,27
 354 396 354 396 324 428.5 c 128,-1,28
 294 461 294 461 246.5 481 c 128,-1,29
 199 501 199 501 140 501 c 2,30,31
 140 501 140 501 107 501 c 1,16,-1
EndSplineSet
Validated: 1
EndChar

StartChar: D
Encoding: 68 68 23
Width: 641
GlyphClass: 2
Flags: W
LayerCount: 2
Fore
SplineSet
25 538 m 1,0,1
 25 538 25 538 89 538 c 1,2,-1
 88 187 l 0,3,4
 88 142 88 142 98.5 109 c 128,-1,5
 109 76 109 76 128 60 c 128,-1,6
 147 44 147 44 172 43.5 c 0,7,8
 172.595238095 43.4880952381 172.595238095 43.4880952381 173.194160998 43.4880952381 c 0,9,10
 197.75 43.4880952381 197.75 43.4880952381 228.5 63.5 c 0,11,12
 260 84 260 84 293 124 c 1,13,14
 289 135 289 135 287 143.5 c 128,-1,15
 285 152 285 152 285 157 c 128,-1,16
 285 162 285 162 285.5 172 c 128,-1,17
 286 182 286 182 286 188 c 0,18,19
 286 467 286 467 287 538 c 1,20,21
 287 538 287 538 352 538 c 1,22,-1
 350 212 l 2,23,24
 352 156 352 156 366 118 c 128,-1,25
 380 80 380 80 402.5 64.5 c 128,-1,26
 425 49 425 49 452 48.5 c 0,27,28
 452.84375 48.484375 452.84375 48.484375 453.687988281 48.484375 c 0,29,30
 479.859375 48.484375 479.859375 48.484375 506.5 63.5 c 0,31,32
 534 79 534 79 557 105 c 1,33,34
 557 105 557 105 557 537 c 1,35,-1
 621 537 l 1,36,-1
 621 0 l 1,37,-1
 557 0 l 1,38,-1
 557 51 l 1,39,40
 532 10 532 10 485 -5 c 0,41,42
 465.684931507 -11.1643835616 465.684931507 -11.1643835616 446.116532182 -11.1643835616 c 0,43,44
 418.068493151 -11.1643835616 418.068493151 -11.1643835616 389.5 1.5 c 0,45,46
 341 23 341 23 315 79 c 1,47,48
 298 52 298 52 270 30.5 c 128,-1,49
 242 9 242 9 209.5 -2 c 0,50,51
 186.435483871 -9.8064516129 186.435483871 -9.8064516129 163.119146722 -9.8064516129 c 0,52,53
 153.580645161 -9.8064516129 153.580645161 -9.8064516129 144 -8.5 c 0,54,55
 111 -4 111 -4 84 15 c 128,-1,56
 57 34 57 34 40 78.5 c 0,57,58
 23.9444444444 120.527777778 23.9444444444 120.527777778 23.9444444444 179.057098765 c 0,59,60
 23.9444444444 182.5 23.9444444444 182.5 24 186 c 0,61,62
 25 465 25 465 25 538 c 1,0,1
EndSplineSet
Validated: 1
EndChar

StartChar: E
Encoding: 69 69 24
Width: 504
GlyphClass: 2
Flags: W
LayerCount: 2
Fore
SplineSet
382 0 m 1,0,-1
 382 123 l 1,1,2
 376 86 376 86 349 56.5 c 128,-1,3
 322 27 322 27 285.5 11.5 c 128,-1,4
 249 -4 249 -4 208 -5.5 c 0,5,6
 204.032258065 -5.64516129032 204.032258065 -5.64516129032 200.130072841 -5.64516129032 c 0,7,8
 163.709677419 -5.64516129032 163.709677419 -5.64516129032 133 7 c 0,9,10
 99 21 99 21 76 57 c 128,-1,11
 53 93 53 93 53 146 c 0,12,13
 53 179 53 179 53 539 c 1,14,15
 53 539 53 539 119 539 c 1,16,-1
 119 167 l 2,17,18
 119 87 119 87 178.5 63.5 c 0,19,20
 201.422131148 54.4467213115 201.422131148 54.4467213115 225.234748723 54.4467213115 c 0,21,22
 263.233606557 54.4467213115 263.233606557 54.4467213115 303.5 77.5 c 0,23,24
 369 115 369 115 382 184 c 1,25,26
 382 184 382 184 382 539 c 1,27,-1
 451 539 l 1,28,-1
 451 0 l 1,29,-1
 382 0 l 1,0,-1
EndSplineSet
Validated: 1
EndChar

StartChar: G
Encoding: 71 71 25
Width: 500
GlyphClass: 2
Flags: W
LayerCount: 2
Fore
SplineSet
243 543 m 0,0,1
 287 543 287 543 322 530.5 c 128,-1,2
 357 518 357 518 380 498 c 128,-1,3
 403 478 403 478 420.5 449.5 c 128,-1,4
 438 421 438 421 447 393.5 c 128,-1,5
 456 366 456 366 461.5 333.5 c 128,-1,6
 467 301 467 301 468 278.5 c 128,-1,7
 469 256 469 256 469 231 c 1,8,9
 469 231 469 231 78 231 c 1,10,11
 79 143 79 143 117 102 c 128,-1,12
 155 61 155 61 243 61 c 0,13,14
 275 61 275 61 309 70.5 c 128,-1,15
 343 80 343 80 367.5 92 c 128,-1,16
 392 104 392 104 416 119 c 128,-1,17
 440 134 440 134 447.5 140 c 128,-1,18
 455 146 455 146 459 150 c 1,19,20
 454 139 454 139 405 55 c 0,21,22
 395 44 395 44 379.5 32.5 c 128,-1,23
 364 21 364 21 325.5 7.5 c 128,-1,24
 287 -6 287 -6 244 -6 c 0,25,26
 190 -5 190 -5 150 8.5 c 128,-1,27
 110 22 110 22 79 52.5 c 128,-1,28
 48 83 48 83 31.5 137 c 128,-1,29
 15 191 15 191 15 268 c 0,30,31
 15 402 15 402 75 472.5 c 128,-1,32
 135 543 135 543 243 543 c 0,0,1
239 478 m 0,33,34
 192 478 192 478 159 462 c 128,-1,35
 126 446 126 446 109.5 419 c 128,-1,36
 93 392 93 392 86 364 c 128,-1,37
 79 336 79 336 79 303 c 1,38,39
 79 303 79 303 404 303 c 1,40,41
 404 337 404 337 396.5 366 c 128,-1,42
 389 395 389 395 372 421.5 c 128,-1,43
 355 448 355 448 321 463 c 128,-1,44
 287 478 287 478 239 478 c 0,33,34
145 -43 m 1,45,46
 145 -43 145 -43 149 -43 c 1,47,48
 156 -77 156 -77 199.5 -91 c 0,49,50
 221.645454545 -98.1272727273 221.645454545 -98.1272727273 243.661322314 -98.1272727273 c 0,51,52
 264.890909091 -98.1272727273 264.890909091 -98.1272727273 286 -91.5 c 0,53,54
 329 -78 329 -78 335 -43 c 1,55,56
 335 -43 335 -43 339 -43 c 1,57,58
 339 -74 339 -74 328.5 -98.5 c 128,-1,59
 318 -123 318 -123 300.5 -135 c 128,-1,60
 283 -147 283 -147 262.5 -152.5 c 0,61,62
 252.695652174 -155.130434783 252.695652174 -155.130434783 242.776937618 -155.130434783 c 0,63,64
 231.956521739 -155.130434783 231.956521739 -155.130434783 221 -152 c 0,65,66
 200 -146 200 -146 183 -133.5 c 128,-1,67
 166 -121 166 -121 155 -97 c 128,-1,68
 144 -73 144 -73 145 -43 c 1,45,46
EndSplineSet
Validated: 33
EndChar

StartChar: H
Encoding: 72 72 26
Width: 500
GlyphClass: 2
Flags: W
LayerCount: 2
Fore
SplineSet
257 542 m 0,0,1
 369 542 369 542 451 450 c 1,2,-1
 419 419 l 1,3,4
 391 441 391 441 376 450.5 c 128,-1,5
 361 460 361 460 329 470 c 128,-1,6
 297 480 297 480 257 480 c 0,7,8
 190 480 190 480 150.5 425.5 c 128,-1,9
 111 371 111 371 111 269 c 0,10,11
 111 62 111 62 257 62 c 0,12,13
 260 62 260 62 266 62 c 0,14,15
 301 62 301 62 320.5 64 c 128,-1,16
 340 66 340 66 373.5 77.5 c 128,-1,17
 407 89 407 89 444 113 c 1,18,19
 443 111 443 111 436 96.5 c 128,-1,20
 429 82 429 82 423.5 72 c 128,-1,21
 418 62 418 62 403 46.5 c 128,-1,22
 388 31 388 31 370 21 c 128,-1,23
 352 11 352 11 322.5 3.5 c 128,-1,24
 293 -4 293 -4 257 -4 c 0,25,26
 202 -4 202 -4 158 21 c 128,-1,27
 114 46 114 46 87.5 86.5 c 128,-1,28
 61 127 61 127 47 174 c 128,-1,29
 33 221 33 221 33 269 c 0,30,31
 33 307 33 307 40.5 344.5 c 128,-1,32
 48 382 48 382 65 418 c 128,-1,33
 82 454 82 454 107.5 481 c 128,-1,34
 133 508 133 508 171.5 525 c 128,-1,35
 210 542 210 542 257 542 c 0,0,1
EndSplineSet
Validated: 1
EndChar

StartChar: I
Encoding: 73 73 27
Width: 503
GlyphClass: 2
Flags: W
LayerCount: 2
Fore
SplineSet
48 539 m 1,0,-1
 117 539 l 1,1,-1
 117 448 l 1,2,3
 132 472 132 472 157.5 492.5 c 128,-1,4
 183 513 183 513 214 524.5 c 128,-1,5
 245 536 245 536 278.5 540.5 c 0,6,7
 288.55 541.85 288.55 541.85 298.42 541.85 c 0,8,9
 321.45 541.85 321.45 541.85 343.5 534.5 c 0,10,11
 375 524 375 524 400 503 c 128,-1,12
 425 482 425 482 440 440 c 128,-1,13
 455 398 455 398 455 342 c 2,14,15
 455 342 455 342 455 0 c 1,16,-1
 390 0 l 1,17,-1
 390 356 l 2,18,19
 390 389 390 389 377 417.5 c 128,-1,20
 364 446 364 446 339 463.5 c 128,-1,21
 314 481 314 481 281 483.5 c 0,22,23
 277.5625 483.760416667 277.5625 483.760416667 274.016493056 483.760416667 c 0,24,25
 243.520833333 483.760416667 243.520833333 483.760416667 205 464.5 c 0,26,27
 162 443 162 443 117 396 c 1,28,29
 117 396 117 396 117 0 c 1,30,-1
 48 0 l 1,31,-1
 48 539 l 1,0,-1
EndSplineSet
Validated: 1
EndChar

StartChar: J
Encoding: 74 74 28
Width: 500
GlyphClass: 2
Flags: W
LayerCount: 2
Fore
SplineSet
382 -180 m 1,0,-1
 382 123 l 1,1,2
 376 86 376 86 349 56.5 c 128,-1,3
 322 27 322 27 285.5 11 c 128,-1,4
 249 -5 249 -5 208 -6.5 c 0,5,6
 204.032258065 -6.64516129032 204.032258065 -6.64516129032 200.130072841 -6.64516129032 c 0,7,8
 163.709677419 -6.64516129032 163.709677419 -6.64516129032 133 6 c 0,9,10
 99 20 99 20 76 56 c 128,-1,11
 53 92 53 92 53 145 c 0,12,13
 53 178 53 178 53 539 c 1,14,15
 53 539 53 539 87 538 c 1,16,-1
 119 538 l 1,17,-1
 119 167 l 2,18,19
 119 86 119 86 178.5 63 c 0,20,21
 201.308333333 54.1833333333 201.308333333 54.1833333333 224.998333333 54.1833333333 c 0,22,23
 263.108333333 54.1833333333 263.108333333 54.1833333333 303.5 77 c 0,24,25
 369 114 369 114 382 183 c 1,26,27
 382 183 382 183 382 539 c 1,28,-1
 451 539 l 1,29,-1
 451 -180 l 1,30,-1
 382 -180 l 1,0,-1
EndSplineSet
Validated: 1
EndChar

StartChar: K
Encoding: 75 75 29
Width: 500
GlyphClass: 2
Flags: W
LayerCount: 2
Fore
SplineSet
253 544 m 0,0,1
 297 544 297 544 332 531.5 c 128,-1,2
 367 519 367 519 390 499 c 128,-1,3
 413 479 413 479 430.5 450.5 c 128,-1,4
 448 422 448 422 457 394.5 c 128,-1,5
 466 367 466 367 471.5 334.5 c 128,-1,6
 477 302 477 302 478 279.5 c 128,-1,7
 479 257 479 257 479 232 c 1,8,9
 479 232 479 232 88 232 c 1,10,11
 89 144 89 144 127 102.5 c 0,12,13
 164.105882353 61.9764705882 164.105882353 61.9764705882 248.88650519 61.9764705882 c 0,14,15
 250.929411765 61.9764705882 250.929411765 61.9764705882 253 62 c 0,16,17
 285 62 285 62 319 71.5 c 128,-1,18
 353 81 353 81 377.5 93 c 128,-1,19
 402 105 402 105 426 120 c 128,-1,20
 450 135 450 135 457.5 141 c 128,-1,21
 465 147 465 147 469 151 c 1,22,23
 464 140 464 140 415 56 c 0,24,25
 405 45 405 45 389.5 33.5 c 128,-1,26
 374 22 374 22 335.5 8.5 c 128,-1,27
 297 -5 297 -5 254 -5 c 0,28,29
 200 -5 200 -5 160 8.5 c 128,-1,30
 120 22 120 22 89 53 c 128,-1,31
 58 84 58 84 41.5 138 c 128,-1,32
 25 192 25 192 25 269 c 0,33,34
 25 403 25 403 85 473.5 c 128,-1,35
 145 544 145 544 253 544 c 0,0,1
249 479 m 0,36,37
 202 479 202 479 169 463 c 128,-1,38
 136 447 136 447 119.5 420 c 128,-1,39
 103 393 103 393 96 364.5 c 128,-1,40
 89 336 89 336 89 304 c 1,41,42
 89 304 89 304 414 304 c 1,43,44
 414 338 414 338 406.5 367 c 128,-1,45
 399 396 399 396 382 422.5 c 128,-1,46
 365 449 365 449 331 464 c 128,-1,47
 297 479 297 479 249 479 c 0,36,37
EndSplineSet
Validated: 1
EndChar

StartChar: L
Encoding: 76 76 30
Width: 480
GlyphClass: 2
Flags: W
LayerCount: 2
Fore
SplineSet
240 544 m 0,0,1
 321 544 321 544 383 500 c 128,-1,2
 445 456 445 456 445 403 c 0,3,4
 445 292 445 292 343 270 c 5,5,6
 444 248 444 248 445 137 c 0,7,8
 445 72 445 72 385.5 33.5 c 128,-1,9
 326 -5 326 -5 240 -5 c 0,10,11
 209 -5 209 -5 184.5 -1.5 c 128,-1,12
 160 2 160 2 140.5 11.5 c 128,-1,13
 121 21 121 21 113 25 c 128,-1,14
 105 29 105 29 87.5 43.5 c 0,15,16
 70.8552631579 57.1184210526 70.8552631579 57.1184210526 70 59 c 2,17,18
 70 59 70 59 35 136 c 1,19,-1
 44 128 l 0,20,21
 127 58 127 58 240 58 c 0,22,23
 247 58 247 58 253.272727273 57.8181818182 c 0,24,25
 301 58 301 58 328 76 c 0,26,27
 363 100 363 100 363 143.673828125 c 0,28,29
 363 163 363 163 360.5 180 c 128,-1,30
 358 197 358 197 343.5 212 c 128,-1,31
 329 227 329 227 301 233.5 c 128,-1,32
 273 240 273 240 233 241 c 1,33,34
 233 241 233 241 178 249 c 1,35,-1
 178 291 l 1,36,-1
 232 299 l 2,37,38
 279 306 279 306 305 313.5 c 0,39,40
 331 322 331 322 345 336 c 128,-1,41
 359 350 359 350 362.5 364.5 c 128,-1,42
 366 379 366 379 366 403 c 0,43,44
 366 441 366 441 325 467 c 0,45,46
 294 487 294 487 240 487 c 0,47,48
 118 487 118 487 80 413 c 1,49,50
 80 413 80 413 52 466 c 2,51,52
 52 466 52 466 64.5 476.5 c 0,53,54
 76 486 76 486 82 491 c 128,-1,55
 88 496 88 496 102 505.5 c 128,-1,56
 116 515 116 515 129 520.5 c 128,-1,57
 142 526 142 526 159.5 532 c 128,-1,58
 177 538 177 538 197.5 541 c 128,-1,59
 218 544 218 544 240 544 c 0,0,1
EndSplineSet
Validated: 524289
EndChar

StartChar: M
Encoding: 77 77 31
Width: 500
GlyphClass: 2
Flags: W
LayerCount: 2
Fore
SplineSet
105 608 m 1,0,1
 105 608 105 608 67 654 c 1,2,3
 89 689 89 689 149.5 718.5 c 128,-1,4
 210 748 210 748 263 748 c 0,5,6
 339 748 339 748 391.5 716 c 128,-1,7
 444.008403361 683.994877951 444.008403361 683.994877951 444.008403361 641.693383236 c 0,8,9
 444.008403361 564.857142857 444.008403361 564.857142857 327 548 c 1,10,11
 403 532 403 532 445.5 455.5 c 128,-1,12
 488 379 488 379 488 276 c 0,13,14
 488 203 488 203 457 138 c 128,-1,15
 426 73 426 73 374 34 c 128,-1,16
 322 -5 322 -5 263 -5 c 128,-1,17
 204 -5 204 -5 151.5 34 c 128,-1,18
 99 73 99 73 67.5 138 c 128,-1,19
 36 203 36 203 36 276 c 128,-1,20
 36 349 36 349 67.5 415.5 c 128,-1,21
 99 482 99 482 151.5 522.5 c 128,-1,22
 204 563 204 563 263 563 c 0,23,24
 268 564 268 564 284 568.5 c 128,-1,25
 300 573 300 573 309 576 c 128,-1,26
 318 579 318 579 332.5 584 c 128,-1,27
 347 589 347 589 356 594 c 128,-1,28
 365 599 365 599 374.5 605.5 c 128,-1,29
 384 612 384 612 388.5 620 c 128,-1,30
 393 628 393 628 393 637 c 0,31,32
 393 654 393 654 377.5 666 c 128,-1,33
 362 678 362 678 339 683 c 128,-1,34
 316 688 316 688 297 690 c 0,35,36
 284.333333333 691.333333333 284.333333333 691.333333333 273.444444444 691.333333333 c 0,37,38
 268 691.333333333 268 691.333333333 263 691 c 0,39,40
 221 691 221 691 182 674 c 128,-1,41
 143 657 143 657 105 608 c 1,0,1
263 501 m 0,42,43
 189 501 189 501 150 442.5 c 128,-1,44
 111 384 111 384 111 276 c 0,45,46
 111 169 111 169 150 113 c 128,-1,47
 189 57 189 57 263 57 c 256,48,49
 337 57 337 57 375 113 c 128,-1,50
 413 169 413 169 413 276 c 0,51,52
 413 384 413 384 374.5 442.5 c 128,-1,53
 336 501 336 501 263 501 c 0,42,43
EndSplineSet
Validated: 1
EndChar

StartChar: N
Encoding: 78 78 32
Width: 623
GlyphClass: 2
Flags: W
LayerCount: 2
Fore
SplineSet
408 546 m 0,0,1
 457 546 457 546 493.5 524.5 c 128,-1,2
 530 503 530 503 552 464.5 c 128,-1,3
 574 426 574 426 584.5 377.5 c 128,-1,4
 595 329 595 329 595 271 c 0,5,6
 595 224 595 224 590 185 c 128,-1,7
 585 146 585 146 572.5 110 c 128,-1,8
 560 74 560 74 539 49.5 c 128,-1,9
 518 25 518 25 485 10.5 c 128,-1,10
 452 -4 452 -4 408 -4 c 0,11,12
 225 -4 225 -4 219 238 c 1,13,14
 219 238 219 238 95 238 c 1,15,-1
 95 2 l 1,16,-1
 28 2 l 1,17,-1
 28 540 l 1,18,-1
 95 540 l 1,19,-1
 95 302 l 1,20,-1
 219 302 l 1,21,22
 222 415 222 415 267.5 480.5 c 128,-1,23
 313 546 313 546 408 546 c 0,0,1
408 504 m 0,24,25
 346 504 346 504 321 445 c 128,-1,26
 296 386 296 386 296 271 c 0,27,28
 296 158 296 158 321 102 c 128,-1,29
 346 46 346 46 408 46 c 0,30,31
 469 46 469 46 496.5 103 c 128,-1,32
 524 160 524 160 524 271 c 0,33,34
 524 504 524 504 408 504 c 0,24,25
EndSplineSet
Validated: 1
EndChar

StartChar: O
Encoding: 79 79 33
Width: 478
GlyphClass: 2
Flags: W
LayerCount: 2
Fore
SplineSet
226 546 m 0,0,1
 273 546 273 546 311.5 529 c 128,-1,2
 350 512 350 512 374.5 484.5 c 128,-1,3
 399 457 399 457 415.5 420.5 c 128,-1,4
 432 384 432 384 439 346.5 c 128,-1,5
 446 309 446 309 446 271 c 0,6,7
 446 223 446 223 432.5 176 c 128,-1,8
 419 129 419 129 393.5 88 c 128,-1,9
 368 47 368 47 324.5 21.5 c 0,10,11
 282.641509434 -3.03773584906 282.641509434 -3.03773584906 230.134567462 -3.03773584906 c 0,12,13
 228.075471698 -3.03773584906 228.075471698 -3.03773584906 226 -3 c 0,14,15
 190 -3 190 -3 160.5 4 c 128,-1,16
 131 11 131 11 113 19.5 c 128,-1,17
 95 28 95 28 80 43.5 c 128,-1,18
 65 59 65 59 59.5 67.5 c 128,-1,19
 54 76 54 76 46.5 91 c 128,-1,20
 39 106 39 106 39 107 c 1,21,22
 76 83 76 83 109.5 71.5 c 128,-1,23
 143 60 143 60 162.5 58.5 c 128,-1,24
 182 57 182 57 217 57 c 0,25,26
 223 57 223 57 226 57 c 0,27,28
 293 57 293 57 330 104.5 c 128,-1,29
 367 152 367 152 372 245 c 1,30,31
 372 245 372 245 147 245 c 1,32,-1
 147 305 l 1,33,-1
 371 305 l 1,34,35
 364 393 364 393 325 442.5 c 128,-1,36
 286 492 286 492 226 492 c 0,37,38
 188 492 188 492 157.5 482.5 c 128,-1,39
 127 473 127 473 111.5 463.5 c 128,-1,40
 96 454 96 454 70 435 c 0,41,42
 66 431 66 431 64 429 c 2,43,44
 64 429 64 429 32 452 c 1,45,46
 116 546 116 546 226 546 c 0,0,1
EndSplineSet
Validated: 1
EndChar

StartChar: P
Encoding: 80 80 34
Width: 503
GlyphClass: 2
Flags: W
LayerCount: 2
Fore
SplineSet
408 551 m 1,0,1
 408 551 408 551 474 551 c 1,2,-1
 300 270 l 1,3,4
 478 -4 478 -4 478 -4 c 129,-1,5
 478 -4 478 -4 397 -4 c 1,6,-1
 255 228 l 1,7,8
 233 188 233 188 104 -4 c 1,9,10
 104 -4 104 -4 34 -4 c 1,11,-1
 209 269 l 1,12,13
 206 277 206 277 161 347.5 c 128,-1,14
 116 418 116 418 73 484.5 c 128,-1,15
 30 551 30 551 29 551 c 1,16,17
 29 551 29 551 112 551 c 1,18,-1
 256 311 l 1,19,20
 280 352 280 352 408 551 c 1,0,1
EndSplineSet
Validated: 1
EndChar

StartChar: S
Encoding: 83 83 35
Width: 503
GlyphClass: 2
Flags: W
LayerCount: 2
Fore
SplineSet
33 541 m 1,0,-1
 163 541 l 2,1,2
 247 541 247 541 313.5 511.5 c 128,-1,3
 380 482 380 482 413.5 434 c 128,-1,4
 447 386 447 386 464 328.5 c 0,5,6
 472.892307692 298.423076923 472.892307692 298.423076923 472.892307692 268.346153846 c 0,7,8
 472.892307692 240.923076923 472.892307692 240.923076923 465.5 213.5 c 0,9,10
 450 156 450 156 416.5 108.5 c 128,-1,11
 383 61 383 61 316 31 c 128,-1,12
 249 1 249 1 163 1 c 2,13,14
 163 1 163 1 33 1 c 1,15,-1
 33 541 l 1,0,-1
105 502 m 1,16,-1
 105 40 l 1,17,-1
 140 40 l 2,18,19
 200 40 200 40 248.5 60 c 128,-1,20
 297 80 297 80 326 112.5 c 128,-1,21
 355 145 355 145 371 186.5 c 0,22,23
 386.515151515 226.742424242 386.515151515 226.742424242 386.515151515 268.865472911 c 0,24,25
 386.515151515 313.704315886 386.515151515 313.704315886 369.5 356.5 c 0,26,27
 353 398 353 398 323.5 430.5 c 128,-1,28
 294 463 294 463 246.5 482.5 c 128,-1,29
 199 502 199 502 140 502 c 2,30,31
 140 502 140 502 105 502 c 1,16,-1
152 -36 m 1,32,33
 152 -36 152 -36 156 -36 c 1,34,35
 163 -70 163 -70 206.5 -84 c 0,36,37
 228.645454545 -91.1272727273 228.645454545 -91.1272727273 250.661322314 -91.1272727273 c 0,38,39
 271.890909091 -91.1272727273 271.890909091 -91.1272727273 293 -84.5 c 0,40,41
 336 -71 336 -71 342 -36 c 1,42,43
 342 -36 342 -36 347 -36 c 1,44,45
 347 -67 347 -67 336 -91.5 c 128,-1,46
 325 -116 325 -116 308 -128 c 128,-1,47
 291 -140 291 -140 270 -145.5 c 0,48,49
 259.956521739 -148.130434783 259.956521739 -148.130434783 249.913043478 -148.130434783 c 0,50,51
 249.913043478 -148.130434783 249.913043478 -148.130434783 228 -145 c 0,52,53
 207 -139 207 -139 190 -126.5 c 128,-1,54
 173 -114 173 -114 162.5 -90 c 128,-1,55
 152 -66 152 -66 152 -36 c 1,32,33
EndSplineSet
Validated: 1
EndChar

StartChar: T
Encoding: 84 84 36
Width: 504
GlyphClass: 2
Flags: W
LayerCount: 2
Fore
SplineSet
395 542 m 1,0,-1
 464 542 l 1,1,-1
 464 2 l 1,2,-1
 395 2 l 1,3,-1
 395 453 l 1,4,-1
 111 2 l 1,5,-1
 40 2 l 1,6,-1
 40 542 l 1,7,-1
 111 542 l 1,8,-1
 111 94 l 1,9,-1
 395 542 l 1,0,-1
EndSplineSet
Validated: 1
EndChar

StartChar: U
Encoding: 85 85 37
Width: 488
GlyphClass: 2
Flags: W
LayerCount: 2
Fore
SplineSet
229 546 m 0,0,1
 276 546 276 546 315 529 c 128,-1,2
 354 512 354 512 379 484.5 c 128,-1,3
 404 457 404 457 421 420.5 c 128,-1,4
 438 384 438 384 445.5 346.5 c 128,-1,5
 453 309 453 309 453 271 c 0,6,7
 453 223 453 223 439 176 c 128,-1,8
 425 129 425 129 398.5 88 c 128,-1,9
 372 47 372 47 328 21.5 c 0,10,11
 285.660377358 -3.03773584906 285.660377358 -3.03773584906 233.135279459 -3.03773584906 c 0,12,13
 231.075471698 -3.03773584906 231.075471698 -3.03773584906 229 -3 c 0,14,15
 193 -3 193 -3 163.5 4.5 c 128,-1,16
 134 12 134 12 116 22 c 128,-1,17
 98 32 98 32 83 47.5 c 128,-1,18
 68 63 68 63 62.5 73.5 c 128,-1,19
 57 84 57 84 50 98.5 c 128,-1,20
 43 113 43 113 42 115 c 1,21,22
 55 106 55 106 67.5 99 c 128,-1,23
 80 92 80 92 93 87 c 128,-1,24
 106 82 106 82 114 78.5 c 128,-1,25
 122 75 122 75 135 73 c 128,-1,26
 148 71 148 71 153.5 69.5 c 128,-1,27
 159 68 159 68 173.5 67.5 c 128,-1,28
 188 67 188 67 191 67 c 128,-1,29
 194 67 194 67 210.5 67 c 128,-1,30
 227 67 227 67 229 67 c 0,31,32
 375 67 375 67 375 271 c 0,33,34
 375 373 375 373 335.5 426.5 c 128,-1,35
 296 480 296 480 229 480 c 0,36,37
 189 480 189 480 157 471 c 128,-1,38
 125 462 125 462 109.5 452 c 128,-1,39
 94 442 94 442 67 421 c 1,40,41
 67 421 67 421 35 452 c 1,42,43
 119 546 119 546 229 546 c 0,0,1
EndSplineSet
Validated: 1
EndChar

StartChar: W
Encoding: 87 87 38
Width: 500
GlyphClass: 2
Flags: W
LayerCount: 2
Fore
SplineSet
251 555 m 128,-1,1
 341 555 341 555 410.5 471.5 c 128,-1,2
 480 388 480 388 480 277 c 0,3,4
 480 204 480 204 448 138.5 c 128,-1,5
 416 73 416 73 363 34 c 128,-1,6
 310 -5 310 -5 251 -5 c 0,7,8
 161 -5 161 -5 92.5 79.5 c 128,-1,9
 24 164 24 164 24 277 c 0,10,11
 24 389 24 389 92.5 472 c 128,-1,0
 161 555 161 555 251 555 c 128,-1,1
251 500 m 0,12,13
 107 500 107 500 107 277 c 128,-1,14
 107 54 107 54 251 54 c 0,15,16
 324 54 324 54 360.5 112 c 128,-1,17
 397 170 397 170 397 279 c 0,18,19
 397 500 397 500 251 500 c 0,12,13
EndSplineSet
Validated: 1
EndChar

StartChar: X
Encoding: 88 88 39
Width: 503
GlyphClass: 2
Flags: W
LayerCount: 2
Fore
SplineSet
48 540 m 1,0,-1
 117 540 l 1,1,-1
 117 449 l 1,2,3
 132 473 132 473 157.5 493.5 c 128,-1,4
 183 514 183 514 214 525.5 c 128,-1,5
 245 537 245 537 278.5 541.5 c 0,6,7
 288.55 542.85 288.55 542.85 298.42 542.85 c 0,8,9
 321.45 542.85 321.45 542.85 343.5 535.5 c 0,10,11
 375 525 375 525 400 503.5 c 128,-1,12
 425 482 425 482 440 440.5 c 128,-1,13
 455 399 455 399 455 343 c 2,14,15
 455 343 455 343 455 1 c 2,16,17
 455 -56 455 -56 408 -110 c 0,18,19
 359 -165 359 -165 299 -175 c 1,20,21
 299 -175 299 -175 242 -180 c 1,22,23
 294 -156 294 -156 342 -90.5 c 128,-1,24
 390 -25 390 -25 390 31 c 2,25,26
 390 31 390 31 390 357 c 2,27,28
 390 390 390 390 377 418.5 c 128,-1,29
 364 447 364 447 339 464 c 128,-1,30
 314 481 314 481 281 484 c 0,31,32
 276.959183673 484.367346939 276.959183673 484.367346939 272.768429821 484.367346939 c 0,33,34
 242.734693878 484.367346939 242.734693878 484.367346939 205 465.5 c 0,35,36
 162 444 162 444 117 397 c 1,37,38
 117 397 117 397 117 1 c 1,39,-1
 48 1 l 1,40,-1
 48 540 l 1,0,-1
EndSplineSet
Validated: 1
EndChar

StartChar: Z
Encoding: 90 90 40
Width: 502
GlyphClass: 2
Flags: W
LayerCount: 2
Fore
SplineSet
40 540 m 1,0,-1
 110 540 l 1,1,-1
 110 92 l 1,2,-1
 394 540 l 1,3,-1
 462 540 l 1,4,-1
 462 0 l 1,5,-1
 394 0 l 1,6,-1
 394 451 l 1,7,-1
 110 0 l 1,8,-1
 40 0 l 1,9,-1
 40 540 l 1,0,-1
154 -37 m 1,10,11
 154 -37 154 -37 158 -37 c 1,12,13
 165 -71 165 -71 208.5 -85 c 0,14,15
 230.645507812 -92.126953125 230.645507812 -92.126953125 252.661132812 -92.126953125 c 0,16,17
 273.890625 -92.126953125 273.890625 -92.126953125 295 -85.5 c 0,18,19
 338 -72 338 -72 344 -37 c 1,20,21
 344 -37 344 -37 348 -37 c 1,22,23
 348 -68 348 -68 337.5 -92.5 c 128,-1,24
 327 -117 327 -117 309.5 -129.5 c 128,-1,25
 292 -142 292 -142 271.5 -147.5 c 0,26,27
 262.104492188 -150.020507812 262.104492188 -150.020507812 252.603515625 -150.020507812 c 0,28,29
 241.375 -150.020507812 241.375 -150.020507812 230 -146.5 c 0,30,31
 209 -140 209 -140 192 -127.5 c 128,-1,32
 175 -115 175 -115 164 -91 c 128,-1,33
 153 -67 153 -67 154 -37 c 1,10,11
EndSplineSet
Validated: 33
EndChar
